<svg width="516" height="529" viewBox="0 0 516 529" fill="none" xmlns="http://www.w3.org/2000/svg">
<g filter="url(#filter0_f_12_39)">
<path fill-rule="evenodd" clip-rule="evenodd" d="M259.089 154.776C276.779 158.012 289.418 172.072 304.564 181.353C318.08 189.636 334.272 194.597 343.977 206.794C353.621 218.913 353.341 235.277 358.834 249.552C365.092 265.813 381.082 280.036 378.774 297.214C376.492 314.196 359.638 325.756 346.963 337.907C335.158 349.223 322.232 359.248 307.041 365.978C291.957 372.661 275.683 378.008 259.089 376.839C242.848 375.694 228.702 366.932 214.44 359.449C200.731 352.257 187.03 344.945 176.802 333.667C166.389 322.183 160.927 307.897 154.944 293.839C148.161 277.898 133.878 261.615 139.14 245.163C144.5 228.406 170.016 226.014 181.11 212.037C192.605 197.552 189.234 174.104 204.335 163.015C219.15 152.137 240.713 151.414 259.089 154.776Z" fill="url(#paint0_linear_12_39)"/>
</g>
<defs>
<filter id="filter0_f_12_39" x="-162" y="-147" width="841" height="824" filterUnits="userSpaceOnUse" color-interpolation-filters="sRGB">
<feFlood flood-opacity="0" result="BackgroundImageFix"/>
<feBlend mode="normal" in="SourceGraphic" in2="BackgroundImageFix" result="shape"/>
<feGaussianBlur stdDeviation="150" result="effect1_foregroundBlur_12_39"/>
</filter>
<linearGradient id="paint0_linear_12_39" x1="258.5" y1="153" x2="258.5" y2="377" gradientUnits="userSpaceOnUse">
<stop stop-color="#3FE8FF"/>
<stop offset="1" stop-color="#FF00DD"/>
</linearGradient>
</defs>
</svg>
