<svg width="692" height="709" viewBox="0 0 692 709" fill="none" xmlns="http://www.w3.org/2000/svg">
<g clip-path="url(#clip0_12_32)">
<rect width="692" height="709" fill="white"/>
<g filter="url(#filter0_f_12_32)">
<path fill-rule="evenodd" clip-rule="evenodd" d="M346.684 230.99C367.238 234.617 381.921 250.371 399.518 260.771C415.222 270.052 434.033 275.611 445.31 289.278C456.514 302.858 456.188 321.194 462.571 337.19C469.841 355.411 488.419 371.349 485.738 390.597C483.087 409.626 463.505 422.58 448.779 436.195C435.064 448.875 420.045 460.108 402.397 467.649C384.871 475.138 365.963 481.13 346.684 479.819C327.816 478.536 311.38 468.718 294.81 460.334C278.883 452.274 262.964 444.082 251.081 431.443C238.983 418.576 232.637 402.568 225.686 386.815C217.805 368.953 201.21 350.707 207.325 332.272C213.552 313.495 243.198 310.815 256.086 295.153C269.442 278.922 265.525 252.648 283.07 240.223C300.282 228.032 325.334 227.222 346.684 230.99Z" fill="url(#paint0_linear_12_32)"/>
</g>
</g>
<defs>
<filter id="filter0_f_12_32" x="-94" y="-71" width="880" height="851" filterUnits="userSpaceOnUse" color-interpolation-filters="sRGB">
<feFlood flood-opacity="0" result="BackgroundImageFix"/>
<feBlend mode="normal" in="SourceGraphic" in2="BackgroundImageFix" result="shape"/>
<feGaussianBlur stdDeviation="150" result="effect1_foregroundBlur_12_32"/>
</filter>
<linearGradient id="paint0_linear_12_32" x1="346" y1="229" x2="346" y2="480" gradientUnits="userSpaceOnUse">
<stop stop-color="#FF3FFC"/>
<stop offset="1" stop-color="#7B00FF"/>
</linearGradient>
<clipPath id="clip0_12_32">
<rect width="692" height="709" fill="white"/>
</clipPath>
</defs>
</svg>
